<svg width="2046" height="1644" viewBox="0 0 2046 1644" fill="none" xmlns="http://www.w3.org/2000/svg">
<path fill-rule="evenodd" clip-rule="evenodd" d="M1896.47 2.88301C1868.96 12.794 1854.15 44.029 1854.03 92.415L1854 102.33L1848.9 93.931C1830.64 63.871 1808.99 47.998 1791.57 51.896C1783.9 53.613 1778.49 56.463 1772.7 61.841C1756.09 77.261 1749.76 102.448 1754.52 134.158C1756.2 145.353 1756.24 145.501 1761.89 169C1768.07 194.66 1773.32 220.88 1776.12 240C1778.33 255.087 1780.93 277.182 1781.57 286.387L1782.26 296.273L1777.91 293.887C1772.02 290.655 1762 280.496 1759.27 274.993C1756.11 268.611 1755.33 266.33 1750.47 249.345C1748.08 241.01 1744.92 231.785 1743.45 228.845C1734.25 210.52 1718.5 194.096 1707.21 191.056C1692.18 187.008 1676.39 205.908 1668.84 237C1666.82 245.286 1667.16 278.308 1669.35 288C1676.69 320.367 1690.11 343.536 1711.37 360.564C1726.11 372.365 1747.96 381.092 1766.74 382.679C1773.27 383.231 1774 383.506 1773.98 385.397C1773.96 387.858 1772.67 407.604 1770.51 438.5C1769.67 450.6 1768.55 467.025 1768.02 475C1766.55 497.196 1765.84 504 1764.99 504C1763.54 504 1712.31 512.776 1660 521.986C1656.97 522.519 1650.68 523.612 1646 524.416C1628.75 527.383 1624.45 528.156 1622.25 528.68L1620 529.217V322.715C1620 95.354 1620.38 109.621 1613.93 93.34C1602.62 64.783 1578.79 44.217 1548 36.425C1539.16 34.187 1528.97 34.087 1249 33.495C1118.93 33.219 885.585 32.725 730.467 32.396C471.197 31.846 447.723 31.931 439.64 33.445C400.914 40.702 371.64 68.59 362.369 107.057C360.674 114.089 360.558 127.729 360.262 354L359.949 593.5L353.724 597.457C345.397 602.751 321.169 618.309 301.5 630.993C292.7 636.669 282.575 643.198 279 645.502C253.361 662.031 236.571 672.874 231 676.499C224.622 680.651 195.033 699.735 177.726 710.86C139.427 735.479 130.308 741.938 123 749.618C112.176 760.992 105.584 770.122 99.98 781.5C93.883 793.879 91.418 804.174 90.046 823C88.047 850.433 86.985 865.554 85.482 888C84.12 908.32 82.992 924.771 80.027 967.5C79.492 975.2 78.778 985.567 78.438 990.539L77.821 999.578L68.822 1007.54C38.281 1034.56 15.039 1070.58 5.94298 1105C-1.98402 1134.99 -1.78207 1168.74 6.51793 1201.14C10.2069 1215.55 19.243 1239.19 24.998 1249.5C25.92 1251.15 28.163 1255.2 29.985 1258.5C37.186 1271.55 50.1269 1288.72 61.4139 1300.2C98.8629 1338.29 139.14 1352.29 184.573 1343C223.534 1335.03 248.571 1313.35 255.02 1282C258.085 1267.1 257.471 1251.74 252.563 1220.5C247.971 1191.27 244.943 1144.59 246.5 1127L247.233 1118.72L256.39 1136.61C268.305 1159.89 274.352 1167.98 284.5 1174.23C291.682 1178.65 298.242 1180.23 307.827 1179.85C326.956 1179.09 338.657 1168.37 343.385 1147.3C349.179 1121.48 339.471 1083.25 319.372 1052.74C309.231 1037.35 286.603 1017.69 270.166 1010L264.831 1007.5L265.32 1000C265.589 995.875 266.291 984.85 266.88 975.5C267.47 966.15 268.392 952.425 268.929 945C269.467 937.575 270.634 920.475 271.524 907C272.414 893.525 273.447 879.865 273.821 876.645L274.5 870.791L299 854.979C312.475 846.282 329.983 834.967 337.907 829.834C345.831 824.7 354.043 819.442 356.157 818.148L360 815.797L360.026 1006.65C360.041 1121.41 360.436 1201.45 361.016 1207.42C364.684 1245.14 390.588 1277.57 426 1288.78C441.413 1293.66 437.529 1293.5 543.75 1293.5H644V1401.72V1509.94L587.25 1510.22L530.5 1510.5L524.852 1513.15C517.971 1516.37 511.999 1522.17 508.284 1529.22L505.5 1534.5V1577V1619.5L507.844 1624.22C511.37 1631.31 517.266 1637.4 523.719 1640.62L529.5 1643.5H671C806.268 1643.5 812.648 1643.42 815.858 1641.67C821.402 1638.64 827.36 1631.9 829.255 1626.5C830.901 1621.81 831.01 1611.3 831.005 1457.25L831 1293L935.25 1292.97C992.588 1292.95 1062.78 1292.66 1091.24 1292.33L1142.98 1291.73L1143.24 1455.61L1143.5 1619.5L1146.43 1625.29C1149.86 1632.05 1156.23 1638.29 1162.82 1641.34L1167.5 1643.5H1306H1444.5L1450.78 1640.09C1458.17 1636.09 1462.32 1631.68 1465.9 1624.05L1468.5 1618.5V1577V1535.5L1465.79 1530C1462.2 1522.68 1456.4 1516.83 1449.31 1513.35L1443.5 1510.5L1386.75 1510.21L1330 1509.92L1330.03 1396.71L1330.06 1283.5L1335.17 1278C1337.98 1274.97 1345.25 1267.32 1351.33 1261C1384.21 1226.8 1399.72 1210.63 1419.44 1189.99C1426.01 1183.12 1435.92 1172.78 1441.46 1167C1447.01 1161.22 1456.71 1151.09 1463.02 1144.48C1469.33 1137.87 1480.32 1126.4 1487.43 1118.98C1532.4 1072.11 1542.63 1061.43 1566.98 1035.99C1579.35 1023.07 1594.01 1007.78 1599.56 1002C1605.12 996.225 1611.99 989.025 1614.83 986L1620 980.5L1620 849.457L1620 718.414L1633.25 716.187C1651.48 713.122 1680.17 708.163 1716 701.885C1729.1 699.589 1751.34 695.758 1767.5 693.014C1773.55 691.987 1783.68 690.235 1790 689.122C1796.32 688.008 1809.6 685.703 1819.5 684C1829.4 682.297 1842.68 679.991 1849 678.876C1855.32 677.761 1862.75 676.472 1865.5 676.012C1900.71 670.119 1928.83 647.426 1940.14 615.777C1943.74 605.686 1947.66 586.45 1948.44 575C1949.42 560.528 1951.95 524.197 1952.99 509.5C1953.53 501.8 1954.66 485.15 1955.5 472.5C1956.33 459.85 1957.46 443.65 1958 436.5C1958.54 429.35 1959.43 416.075 1959.99 407C1961.34 385.192 1961.32 385.272 1966.55 379.5C1973.29 372.058 1990 349.682 1995.99 340.065C2007.69 321.286 2022.69 288.961 2028.49 270C2040.72 230.05 2046 197.692 2046 162.618C2046 131.797 2041.49 110.234 2032.45 97.774C2027.78 91.343 2022.9 89 2014.17 89C2008.29 89 2006.25 89.511 2000.38 92.465C1989.43 97.977 1978.9 109.208 1971.71 123.053L1968.35 129.5L1967.17 113.5C1963.15 59.223 1944.7 14.935 1921.5 3.86403C1914.2 0.38203 1904.47 0.00101173 1896.47 2.88301ZM658.459 139.071C666.283 141.998 674.194 149.526 678.144 157.801C680.877 163.528 681.298 165.487 681.293 172.456C681.289 178.283 680.695 182.037 679.136 186.079C675.462 195.606 666.535 204.144 656.79 207.453C650.339 209.643 636.902 207.989 629.082 204.041C608.399 193.601 603.481 166.67 619.13 149.548C626.642 141.329 634.151 138.422 651.212 137.13C652.154 137.058 655.415 137.932 658.459 139.071ZM1324.46 139.071C1332.09 141.925 1340.13 149.49 1344.09 157.541C1346.9 163.239 1347.24 164.871 1347.23 172.713C1347.22 179.874 1346.76 182.528 1344.75 187.054C1340.58 196.438 1332.29 204.186 1323 207.387C1316.98 209.461 1304.06 208.037 1295.97 204.408C1283.76 198.926 1276 186.725 1276 173C1276 163.662 1278.8 156.477 1285.13 149.548C1292.64 141.329 1300.15 138.422 1317.21 137.13C1318.15 137.058 1321.41 137.932 1324.46 139.071ZM815 492.543C845.878 499.733 868.79 520.744 878.699 550.96C881.324 558.964 881.496 560.536 881.437 576C881.379 591.128 881.151 593.174 878.689 600.605C870.898 624.128 856.154 641.319 834.733 651.856C822.481 657.883 812.139 660.218 797.577 660.247C782.858 660.275 772.721 657.954 759.5 651.528C737.776 640.969 720.849 619.927 714.83 596C712.175 585.444 711.949 566.913 714.355 557C722.041 525.328 745.313 501.487 776.383 493.455C787.469 490.589 804.846 490.179 815 492.543ZM1208.69 492.91C1229.94 498.105 1244.67 507.545 1257.7 524.313C1269.74 539.814 1274.53 554.735 1274.45 576.5C1274.39 593.273 1273.03 599.198 1265.97 613.5C1256.37 632.952 1239.31 648.175 1218.5 655.863C1205.95 660.498 1184.77 661.68 1171 658.513C1144.65 652.454 1121.67 632.633 1111.28 607C1106.7 595.691 1105.59 589.712 1105.56 576C1105.52 560.446 1107.4 552.147 1114.06 538.478C1125.06 515.91 1143.97 500.342 1168.59 493.589C1180.31 490.377 1197.16 490.091 1208.69 492.91ZM1325.1 814.368C1344.32 820.408 1359.02 837.327 1362.05 856.909C1364.4 872.057 1360.38 889.636 1346.46 925C1333.44 958.058 1314.05 991.449 1290.89 1020.68C1278.7 1036.05 1250.73 1064.18 1235.5 1076.36C1179.6 1121.07 1113.6 1146.51 1032.5 1154.6C1008.67 1156.98 950.854 1157 928.5 1154.63C877.174 1149.21 836.396 1137.87 797.5 1118.22C720.308 1079.22 662.853 1009.2 634.869 920.031C624.509 887.019 621.886 864.067 626.837 849.734C631.612 835.908 640.534 825.86 654.036 819.102C674.576 808.822 698.972 812.935 715.502 829.465C723.582 837.545 727.788 846.297 731.857 863.5C740.764 901.156 757.836 937.008 780.427 965.5C817.405 1012.14 870.079 1039.22 939.97 1047.52C956.927 1049.53 1004.88 1049.51 1022.5 1047.49C1081.68 1040.67 1126.22 1023.8 1166 993.114C1176.92 984.691 1198.66 962.955 1207.22 951.897C1229.39 923.26 1246.31 889.899 1257.62 852.5C1259.12 847.55 1262.1 840.707 1264.24 837.294C1271.37 825.907 1283.83 816.766 1296.63 813.519C1303.61 811.752 1318.16 812.186 1325.1 814.368Z" fill="white"/>
</svg>
